<svg xmlns="http://www.w3.org/2000/svg" width="114" height="84"><defs><linearGradient id="bankPillar" x1="0" x2="1"><stop offset="0" stop-color="#606060"/><stop offset=".4" stop-color="#fff"/><stop offset=".6" stop-color="#fff"/><stop offset="1" stop-color="#606060"/></linearGradient><filter id="bankShaddow" width="200%" height="200%" x="-50%" y="-50%"><feGaussianBlur stdDeviation="2"/></filter></defs><path fill="#a0a0a0" d="M 13,23 L 58.5,8 104,23 104,34.5 96.5,34.5 96.5,66 104,66 104,72 109,72 109,79 8,79 8,72 13,72 13,66 20.5,66 20.5,34.5 13,34.5" filter="url(#bankShaddow)"/><rect width="76" height="31.5" x="17" y="31" fill="#fff"/><path fill="#a0a0a0" d="M 20.5,23.5 L 42.16,23.5 42.16,34.5 31.5,34.5 31.5,66 20.5,66" filter="url(#bankShaddow)"/><rect width="11" height="31.5" x="17" y="31" fill="url(#bankPillar)"/><path fill="#a0a0a0" d="M 42.16,23.5 L 63.83,23.5 63.83,34.5 53.16,34.5 53.16,66 42.16,66" filter="url(#bankShaddow)"/><rect width="11" height="31.5" x="38.66" y="31" fill="url(#bankPillar)"/><path fill="#a0a0a0" d="M 63.83,23.5 L 85.5,23.5 85.5,34.5 74.83,34.5 74.83,66 63.83,66" filter="url(#bankShaddow)"/><rect width="11" height="31.5" x="60.33" y="31" fill="url(#bankPillar)"/><rect width="11" height="31.5" x="82" y="31" fill="url(#bankPillar)"/><path fill="#e0e0e0" stroke="#404040" stroke-linecap="round" stroke-width="1" d="M 10,20 L 55,5 100,20"/><rect width="90" height="10" x="10" y="20.5" fill="#f2f2f2" stroke="#404040" stroke-width="1"/><rect width="100" height="6" x="5" y="69" fill="#f2f2f2" stroke="#404040" stroke-width="1"/><rect width="90" height="6" x="10" y="63" fill="#f2f2f2" stroke="#404040" stroke-width="1"/></svg>