<svg xmlns="http://www.w3.org/2000/svg" width="300" height="180"><defs><linearGradient id="bankdirectGradient" x1="0" x2="1" y1="0" y2="1"><stop offset="0" stop-color="#c9daa7"/><stop offset=".5" stop-color="#ebf1de"/><stop offset="1" stop-color="#c9daa7"/></linearGradient><linearGradient id="bankPillar" x1="0" x2="1"><stop offset="0" stop-color="#707070"/><stop offset=".5" stop-color="#fff"/><stop offset="1" stop-color="#707070"/></linearGradient><filter id="bankShaddow" width="200%" height="200%" x="-50%" y="-50%"><feGaussianBlur stdDeviation=".68"/></filter></defs><rect width="300" height="180" x="0" y="0" fill="url(#bankdirectGradient)"/><text x="30" y="141.3" font-family="Sans-serif" font-size="20">Luke Skywalker</text><text x="30" y="163.3" font-family="Noto Sans" font-size="15" font-weight="500">1234 1234 1234 1234</text><text x="226" y="73" fill="#558ed5" font-family="Serif" font-size="28" font-weight="bold" text-anchor="middle">MyBank</text><rect width="138" height="98" x="14" y="14" fill="#fff" stroke="#000" stroke-width="1.2"/><ellipse cx="83" cy="63" fill="none" stroke="#f20707" stroke-width="2" rx="60" ry="40"/><text x="83" y="59" font-family="Sans-serif" font-size="18" text-anchor="middle">BANK</text><text x="83" y="77" font-family="Sans-serif" font-size="18" text-anchor="middle">DIRECT</text><rect width="25.84" height="10.47" x="25.08" y="30" fill="#fff"/><rect width="3.74" height="10.47" x="25.08" y="30" fill="url(#bankPillar)"/><rect width="3.74" height="10.47" x="32.44" y="30" fill="url(#bankPillar)"/><rect width="3.74" height="10.47" x="39.81" y="30" fill="url(#bankPillar)"/><rect width="3.74" height="10.47" x="47.18" y="30" fill="url(#bankPillar)"/><path fill="#e0e0e0" stroke="#404040" stroke-linecap="round" stroke-width=".5" d="M 22.7,26.1 L 38,21 53.3,26.1"/><rect width="30.6" height="3.4" x="22.7" y="26.35" fill="#f2f2f2" stroke="#404040" stroke-width=".5"/><rect width="34" height="2.04" x="21" y="42.76" fill="#f2f2f2" stroke="#404040" stroke-width=".5"/><rect width="30.6" height="2.04" x="22.7" y="40.72" fill="#f2f2f2" stroke="#404040" stroke-width=".5"/><rect width="25.84" height="10.47" x="25.08" y="90.2" fill="#fff"/><rect width="3.74" height="10.47" x="25.08" y="90.2" fill="url(#bankPillar)"/><rect width="3.74" height="10.47" x="32.44" y="90.2" fill="url(#bankPillar)"/><rect width="3.74" height="10.47" x="39.81" y="90.2" fill="url(#bankPillar)"/><rect width="3.74" height="10.47" x="47.18" y="90.2" fill="url(#bankPillar)"/><path fill="#e0e0e0" stroke="#404040" stroke-linecap="round" stroke-width=".5" d="M 22.7,86.3 L 38,81.19 53.3,86.3"/><rect width="30.6" height="3.4" x="22.7" y="86.55" fill="#f2f2f2" stroke="#404040" stroke-width=".5"/><rect width="34" height="2.04" x="21" y="102.96" fill="#f2f2f2" stroke="#404040" stroke-width=".5"/><rect width="30.6" height="2.04" x="22.7" y="100.91" fill="#f2f2f2" stroke="#404040" stroke-width=".5"/><rect width="25.84" height="10.47" x="115.08" y="30" fill="#fff"/><rect width="3.74" height="10.47" x="115.08" y="30" fill="url(#bankPillar)"/><rect width="3.74" height="10.47" x="122.44" y="30" fill="url(#bankPillar)"/><rect width="3.74" height="10.47" x="129.81" y="30" fill="url(#bankPillar)"/><rect width="3.74" height="10.47" x="137.18" y="30" fill="url(#bankPillar)"/><path fill="#e0e0e0" stroke="#404040" stroke-linecap="round" stroke-width=".5" d="M 112.7,26.1 L 128,21 143.3,26.1"/><rect width="30.6" height="3.4" x="112.7" y="26.35" fill="#f2f2f2" stroke="#404040" stroke-width=".5"/><rect width="34" height="2.04" x="111" y="42.76" fill="#f2f2f2" stroke="#404040" stroke-width=".5"/><rect width="30.6" height="2.04" x="112.7" y="40.72" fill="#f2f2f2" stroke="#404040" stroke-width=".5"/><rect width="25.84" height="10.47" x="115.08" y="90.2" fill="#fff"/><rect width="3.74" height="10.47" x="115.08" y="90.2" fill="url(#bankPillar)"/><rect width="3.74" height="10.47" x="122.44" y="90.2" fill="url(#bankPillar)"/><rect width="3.74" height="10.47" x="129.81" y="90.2" fill="url(#bankPillar)"/><rect width="3.74" height="10.47" x="137.18" y="90.2" fill="url(#bankPillar)"/><path fill="#e0e0e0" stroke="#404040" stroke-linecap="round" stroke-width=".5" d="M 112.7,86.3 L 128,81.19 143.3,86.3"/><rect width="30.6" height="3.4" x="112.7" y="86.55" fill="#f2f2f2" stroke="#404040" stroke-width=".5"/><rect width="34" height="2.04" x="111" y="102.96" fill="#f2f2f2" stroke="#404040" stroke-width=".5"/><rect width="30.6" height="2.04" x="112.7" y="100.91" fill="#f2f2f2" stroke="#404040" stroke-width=".5"/></svg>