<svg xmlns="http://www.w3.org/2000/svg" xmlns:xlink="http://www.w3.org/1999/xlink" viewBox="0 0 402 174"><defs><filter id="actorsBlur" width="150%" height="150%" x="-25%" y="-25%"><feGaussianBlur stdDeviation="3"/></filter></defs><a xlink:href="javascript:addDigit('0')"><rect width="56" height="48" x="1" y="1" fill="#fff"/><rect width="44" height="36" x="7" y="7" fill="#a5a5a5" stroke="#969191" stroke-width="1" rx="10" ry="10"/><rect width="40" height="32" x="9" y="9" fill="#fcfcfc" filter="url(#actorsBlur)" rx="9" ry="9"/><text x="29.5" y="34" font-family="Roboto" font-size="26" font-weight="bold" text-anchor="middle">0</text></a><a xlink:href="javascript:addDigit('1')"><rect width="56" height="48" x="81" y="1" fill="#fff"/><rect width="44" height="36" x="87" y="7" fill="#a5a5a5" stroke="#969191" stroke-width="1" rx="10" ry="10"/><rect width="40" height="32" x="89" y="9" fill="#fcfcfc" filter="url(#actorsBlur)" rx="9" ry="9"/><text x="109.5" y="34" font-family="Roboto" font-size="26" font-weight="bold" text-anchor="middle">1</text></a><a xlink:href="javascript:addDigit('2')"><rect width="56" height="48" x="161" y="1" fill="#fff"/><rect width="44" height="36" x="167" y="7" fill="#a5a5a5" stroke="#969191" stroke-width="1" rx="10" ry="10"/><rect width="40" height="32" x="169" y="9" fill="#fcfcfc" filter="url(#actorsBlur)" rx="9" ry="9"/><text x="189.5" y="34" font-family="Roboto" font-size="26" font-weight="bold" text-anchor="middle">2</text></a><a xlink:href="javascript:addDigit('3')"><rect width="56" height="48" x="241" y="1" fill="#fff"/><rect width="44" height="36" x="247" y="7" fill="#a5a5a5" stroke="#969191" stroke-width="1" rx="10" ry="10"/><rect width="40" height="32" x="249" y="9" fill="#fcfcfc" filter="url(#actorsBlur)" rx="9" ry="9"/><text x="269.5" y="34" font-family="Roboto" font-size="26" font-weight="bold" text-anchor="middle">3</text></a><a xlink:href="javascript:addDigit('4')"><rect width="56" height="48" x="1" y="63" fill="#fff"/><rect width="44" height="36" x="7" y="69" fill="#a5a5a5" stroke="#969191" stroke-width="1" rx="10" ry="10"/><rect width="40" height="32" x="9" y="71" fill="#fcfcfc" filter="url(#actorsBlur)" rx="9" ry="9"/><text x="29.5" y="96" font-family="Roboto" font-size="26" font-weight="bold" text-anchor="middle">4</text></a><a xlink:href="javascript:addDigit('5')"><rect width="56" height="48" x="81" y="63" fill="#fff"/><rect width="44" height="36" x="87" y="69" fill="#a5a5a5" stroke="#969191" stroke-width="1" rx="10" ry="10"/><rect width="40" height="32" x="89" y="71" fill="#fcfcfc" filter="url(#actorsBlur)" rx="9" ry="9"/><text x="109.5" y="96" font-family="Roboto" font-size="26" font-weight="bold" text-anchor="middle">5</text></a><a xlink:href="javascript:addDigit('6')"><rect width="56" height="48" x="161" y="63" fill="#fff"/><rect width="44" height="36" x="167" y="69" fill="#a5a5a5" stroke="#969191" stroke-width="1" rx="10" ry="10"/><rect width="40" height="32" x="169" y="71" fill="#fcfcfc" filter="url(#actorsBlur)" rx="9" ry="9"/><text x="189.5" y="96" font-family="Roboto" font-size="26" font-weight="bold" text-anchor="middle">6</text></a><a xlink:href="javascript:addDigit('7')"><rect width="56" height="48" x="1" y="125" fill="#fff"/><rect width="44" height="36" x="7" y="131" fill="#a5a5a5" stroke="#969191" stroke-width="1" rx="10" ry="10"/><rect width="40" height="32" x="9" y="133" fill="#fcfcfc" filter="url(#actorsBlur)" rx="9" ry="9"/><text x="29.5" y="158" font-family="Roboto" font-size="26" font-weight="bold" text-anchor="middle">7</text></a><a xlink:href="javascript:addDigit('8')"><rect width="56" height="48" x="81" y="125" fill="#fff"/><rect width="44" height="36" x="87" y="131" fill="#a5a5a5" stroke="#969191" stroke-width="1" rx="10" ry="10"/><rect width="40" height="32" x="89" y="133" fill="#fcfcfc" filter="url(#actorsBlur)" rx="9" ry="9"/><text x="109.5" y="158" font-family="Roboto" font-size="26" font-weight="bold" text-anchor="middle">8</text></a><a xlink:href="javascript:addDigit('9')"><rect width="56" height="48" x="161" y="125" fill="#fff"/><rect width="44" height="36" x="167" y="131" fill="#a5a5a5" stroke="#969191" stroke-width="1" rx="10" ry="10"/><rect width="40" height="32" x="169" y="133" fill="#fcfcfc" filter="url(#actorsBlur)" rx="9" ry="9"/><text x="189.5" y="158" font-family="Roboto" font-size="26" font-weight="bold" text-anchor="middle">9</text></a><a xlink:href="javascript:deleteDigit()"><rect width="56" height="48" x="345" y="1" fill="#fff"/><rect width="44" height="36" x="351" y="7" fill="#a5a5a5" stroke="#969191" stroke-width="1" rx="10" ry="10"/><rect width="40" height="32" x="353" y="9" fill="#fcfcfc" filter="url(#actorsBlur)" rx="9" ry="9"/><text x="373.5" y="37" fill="#be1018" font-family="Roboto" font-size="45" text-anchor="middle">«</text></a><a xlink:href="javascript:validatePin()"><rect width="138" height="72" x="263" y="101" fill="#fff"/><rect width="126" height="60" x="269" y="107" fill="#a5a5a5" stroke="#969191" stroke-width="1" rx="10" ry="10"/><rect width="122" height="56" x="271" y="109" fill="#fcfcfc" filter="url(#actorsBlur)" rx="9" ry="9"/><text x="332.5" y="146" fill="#090" font-family="Roboto" font-size="26" font-weight="bold" text-anchor="middle">Validate</text></a></svg>